<?xml version="1.0" encoding="UTF-8"?>
<svg id="Layer_1" data-name="Layer 1" xmlns="http://www.w3.org/2000/svg" viewBox="0 0 55 53.62">
  <defs>
    <style>
      .cls-1 {
        fill: #fff;
        stroke-width: 0px;
      }
    </style>
  </defs>
  <path class="cls-1" d="M18.39,43.18c0,.22-.26.4-.58.4-.37.03-.62-.14-.62-.4,0-.22.26-.4.58-.4.33-.03.62.14.62.4ZM14.95,42.68c-.08.22.14.48.48.54.29.11.62,0,.69-.22s-.14-.48-.48-.58c-.29-.08-.61.03-.69.26h0ZM19.85,42.49c-.32.08-.54.29-.51.54.03.22.32.37.65.29.32-.08.54-.29.51-.51-.03-.21-.33-.36-.65-.32ZM27.14,0C11.77,0,0,11.67,0,27.05c0,12.3,7.74,22.82,18.79,26.52,1.42.26,1.92-.62,1.92-1.34s-.03-4.48-.03-6.81c0,0-7.76,1.66-9.39-3.3,0,0-1.26-3.23-3.08-4.06,0,0-2.54-1.74.18-1.71,0,0,2.76.22,4.28,2.86,2.43,4.28,6.5,3.05,8.08,2.32.26-1.77.98-3.01,1.77-3.74-6.2-.69-12.45-1.58-12.45-12.25,0-3.05.84-4.58,2.62-6.53-.29-.72-1.23-3.69.29-7.53,2.32-.72,7.65,3,7.65,3,2.22-.62,4.6-.94,6.96-.94s4.74.32,6.96.94c0,0,5.33-3.73,7.65-3,1.52,3.85.58,6.81.29,7.53,1.77,1.96,2.86,3.49,2.86,6.53,0,10.7-6.53,11.55-12.73,12.25,1.02.88,1.88,2.54,1.88,5.14,0,3.74-.03,8.36-.03,9.27,0,.72.51,1.59,1.92,1.34,11.09-3.68,18.61-14.2,18.61-26.5,0-15.38-12.48-27.05-27.86-27.05ZM10.78,38.24c-.14.11-.11.37.08.58.18.18.43.26.58.11.14-.11.11-.37-.08-.58-.18-.18-.43-.26-.58-.11ZM9.58,37.34c-.08.14.03.32.26.43.18.11.4.08.48-.08.08-.14-.03-.32-.26-.43-.22-.07-.4-.03-.48.08ZM13.17,41.29c-.18.14-.11.48.14.69.26.26.58.29.72.11.14-.14.08-.48-.14-.69-.25-.26-.58-.29-.72-.11ZM11.91,39.66c-.18.11-.18.4,0,.65s.48.37.62.26c.18-.14.18-.43,0-.69-.15-.26-.44-.37-.62-.22h0Z"/>
</svg>